<svg id="visual" viewBox="0 0 9000 5000" preserveAspectRatio="none" width="100000px" height="10000px" xmlns="http://www.w3.org/2000/svg" xmlns:xlink="http://www.w3.org/1999/xlink" version="1.1"><rect x="0" y="0" width="1000" height="800" fill="#ffffff"></rect><path d="M0 159L21.5 163.8C43 168.7 86 178.3 128.8 168.8C171.7 159.3 214.3 130.7 257.2 139C300 147.3 343 192.7 385.8 219.8C428.7 247 471.3 256 514.2 248C557 240 600 215 642.8 200.5C685.7 186 728.3 182 771.2 179.7C814 177.3 857 176.7 878.5 176.3L900 176L900 601L878.5 601C857 601 814 601 771.2 601C728.3 601 685.7 601 642.8 601C600 601 557 601 514.2 601C471.3 601 428.7 601 385.8 601C343 601 300 601 257.2 601C214.3 601 171.7 601 128.8 601C86 601 43 601 21.5 601L0 601Z" fill="#69c1fa"></path><path d="M0 215L21.5 214C43 213 86 211 128.8 204.3C171.7 197.7 214.3 186.3 257.2 181.5C300 176.7 343 178.3 385.8 188C428.7 197.7 471.3 215.3 514.2 235.5C557 255.7 600 278.3 642.8 268.2C685.7 258 728.3 215 771.2 195C814 175 857 178 878.5 179.5L900 181L900 601L878.5 601C857 601 814 601 771.2 601C728.3 601 685.7 601 642.8 601C600 601 557 601 514.2 601C471.3 601 428.7 601 385.8 601C343 601 300 601 257.2 601C214.3 601 171.7 601 128.8 601C86 601 43 601 21.5 601L0 601Z" fill="#46aff9"></path><path d="M0 355L21.5 332C43 309 86 263 128.8 251C171.7 239 214.3 261 257.2 279C300 297 343 311 385.8 314C428.7 317 471.3 309 514.2 291C557 273 600 245 642.8 251.2C685.7 257.3 728.3 297.7 771.2 301.7C814 305.7 857 273.3 878.5 257.2L900 241L900 601L878.5 601C857 601 814 601 771.2 601C728.3 601 685.7 601 642.8 601C600 601 557 601 514.2 601C471.3 601 428.7 601 385.8 601C343 601 300 601 257.2 601C214.3 601 171.7 601 128.8 601C86 601 43 601 21.5 601L0 601Z" fill="#239cf7"></path><path d="M0 328L21.5 338.7C43 349.3 86 370.7 128.8 366.7C171.7 362.7 214.3 333.3 257.2 321.5C300 309.7 343 315.3 385.8 311.7C428.7 308 471.3 295 514.2 299.5C557 304 600 326 642.8 339C685.7 352 728.3 356 771.2 351C814 346 857 332 878.5 325L900 318L900 601L878.5 601C857 601 814 601 771.2 601C728.3 601 685.7 601 642.8 601C600 601 557 601 514.2 601C471.3 601 428.7 601 385.8 601C343 601 300 601 257.2 601C214.3 601 171.7 601 128.8 601C86 601 43 601 21.5 601L0 601Z" fill="#0088f3"></path><path d="M0 407L21.5 406.2C43 405.3 86 403.7 128.8 394.3C171.7 385 214.3 368 257.2 373.7C300 379.3 343 407.7 385.8 403.5C428.7 399.3 471.3 362.7 514.2 358.3C557 354 600 382 642.8 388C685.7 394 728.3 378 771.2 365C814 352 857 342 878.5 337L900 332L900 601L878.5 601C857 601 814 601 771.2 601C728.3 601 685.7 601 642.8 601C600 601 557 601 514.2 601C471.3 601 428.7 601 385.8 601C343 601 300 601 257.2 601C214.3 601 171.7 601 128.8 601C86 601 43 601 21.5 601L0 601Z" fill="#0072ec"></path><path d="M0 453L21.5 451.3C43 449.7 86 446.3 128.8 439.5C171.7 432.7 214.3 422.3 257.2 413.3C300 404.3 343 396.7 385.8 393.5C428.7 390.3 471.3 391.7 514.2 400.8C557 410 600 427 642.8 436C685.7 445 728.3 446 771.2 445.3C814 444.7 857 442.3 878.5 441.2L900 440L900 601L878.5 601C857 601 814 601 771.2 601C728.3 601 685.7 601 642.8 601C600 601 557 601 514.2 601C471.3 601 428.7 601 385.8 601C343 601 300 601 257.2 601C214.3 601 171.7 601 128.8 601C86 601 43 601 21.5 601L0 601Z" fill="#005ce3"></path><path d="M0 490L21.5 483C43 476 86 462 128.8 457.8C171.7 453.7 214.3 459.3 257.2 461C300 462.7 343 460.3 385.8 458C428.7 455.7 471.3 453.3 514.2 452.2C557 451 600 451 642.8 454C685.7 457 728.3 463 771.2 468.5C814 474 857 479 878.5 481.5L900 484L900 601L878.5 601C857 601 814 601 771.2 601C728.3 601 685.7 601 642.8 601C600 601 557 601 514.2 601C471.3 601 428.7 601 385.8 601C343 601 300 601 257.2 601C214.3 601 171.7 601 128.8 601C86 601 43 601 21.5 601L0 601Z" fill="#0043d6"></path><path d="M0 552L21.5 550C43 548 86 544 128.8 541.7C171.7 539.3 214.3 538.7 257.2 532.2C300 525.7 343 513.3 385.8 515.3C428.7 517.3 471.3 533.7 514.2 542.2C557 550.7 600 551.3 642.8 548.2C685.7 545 728.3 538 771.2 531.3C814 524.7 857 518.3 878.5 515.2L900 512L900 601L878.5 601C857 601 814 601 771.2 601C728.3 601 685.7 601 642.8 601C600 601 557 601 514.2 601C471.3 601 428.7 601 385.8 601C343 601 300 601 257.2 601C214.3 601 171.7 601 128.8 601C86 601 43 601 21.5 601L0 601Z" fill="#2424c7"></path></svg>