<svg id="visual" viewBox="0 0 5000px 10000px" width="25%" height="500px" xmlns="http://www.w3.org/2000/svg" xmlns:xlink="http://www.w3.org/1999/xlink" version="1.1"><path d="M0 21L15 27.8C30 34.7 60 48.3 90 55.2C120 62 150 62 180 60.8C210 59.7 240 57.3 270 56.2C300 55 330 55 360 47.2C390 39.3 420 23.7 450 20.3C480 17 510 26 540 31.7C570 37.3 600 39.7 630 41.8C660 44 690 46 720 46C750 46 780 44 810 41.8C840 39.7 870 37.3 885 36.2L900 35L900 0L885 0C870 0 840 0 810 0C780 0 750 0 720 0C690 0 660 0 630 0C600 0 570 0 540 0C510 0 480 0 450 0C420 0 390 0 360 0C330 0 300 0 270 0C240 0 210 0 180 0C150 0 120 0 90 0C60 0 30 0 15 0L0 0Z" fill="#567cb4"></path><path d="M0 224L15 201.5C30 179 60 134 90 117.2C120 100.3 150 111.7 180 109.3C210 107 240 91 270 85.3C300 79.7 330 84.3 360 104.7C390 125 420 161 450 172.2C480 183.3 510 169.7 540 157.3C570 145 600 134 630 133C660 132 690 141 720 147.7C750 154.3 780 158.7 810 149.7C840 140.7 870 118.3 885 107.2L900 96L900 33L885 34.2C870 35.3 840 37.7 810 39.8C780 42 750 44 720 44C690 44 660 42 630 39.8C600 37.7 570 35.3 540 29.7C510 24 480 15 450 18.3C420 21.7 390 37.3 360 45.2C330 53 300 53 270 54.2C240 55.3 210 57.7 180 58.8C150 60 120 60 90 53.2C60 46.3 30 32.7 15 25.8L0 19Z" fill="#4989c0"></path><path d="M0 258L15 234.3C30 210.7 60 163.3 90 145.3C120 127.3 150 138.7 180 142C210 145.3 240 140.7 270 135C300 129.3 330 122.7 360 137.3C390 152 420 188 450 206C480 224 510 224 540 215C570 206 600 188 630 176.7C660 165.3 690 160.7 720 162.8C750 165 780 174 810 173C840 172 870 161 885 155.5L900 150L900 94L885 105.2C870 116.3 840 138.7 810 147.7C780 156.7 750 152.3 720 145.7C690 139 660 130 630 131C600 132 570 143 540 155.3C510 167.7 480 181.3 450 170.2C420 159 390 123 360 102.7C330 82.3 300 77.7 270 83.3C240 89 210 105 180 107.3C150 109.7 120 98.3 90 115.2C60 132 30 177 15 199.5L0 222Z" fill="#3797ca"></path><path d="M0 312L15 289.5C30 267 60 222 90 201.7C120 181.3 150 185.7 180 185.7C210 185.7 240 181.3 270 170.2C300 159 330 141 360 154.5C390 168 420 213 450 238.8C480 264.7 510 271.3 540 260C570 248.7 600 219.3 630 204.7C660 190 690 190 720 190C750 190 780 190 810 187.8C840 185.7 870 181.3 885 179.2L900 177L900 148L885 153.5C870 159 840 170 810 171C780 172 750 163 720 160.8C690 158.7 660 163.3 630 174.7C600 186 570 204 540 213C510 222 480 222 450 204C420 186 390 150 360 135.3C330 120.7 300 127.3 270 133C240 138.7 210 143.3 180 140C150 136.7 120 125.3 90 143.3C60 161.3 30 208.7 15 232.3L0 256Z" fill="#22a4d1"></path><path d="M0 318L15 295.5C30 273 60 228 90 213.5C120 199 150 215 180 216.2C210 217.3 240 203.7 270 191.2C300 178.7 330 167.3 360 184.2C390 201 420 246 450 270.8C480 295.7 510 300.3 540 291.3C570 282.3 600 259.7 630 247.3C660 235 690 233 720 228.5C750 224 780 217 810 211.3C840 205.7 870 201.3 885 199.2L900 197L900 175L885 177.2C870 179.3 840 183.7 810 185.8C780 188 750 188 720 188C690 188 660 188 630 202.7C600 217.3 570 246.7 540 258C510 269.3 480 262.7 450 236.8C420 211 390 166 360 152.5C330 139 300 157 270 168.2C240 179.3 210 183.7 180 183.7C150 183.7 120 179.3 90 199.7C60 220 30 265 15 287.5L0 310Z" fill="#02b1d5"></path><path d="M0 372L15 351.8C30 331.7 60 291.3 90 273.3C120 255.3 150 259.7 180 258.5C210 257.3 240 250.7 270 237.2C300 223.7 330 203.3 360 214.7C390 226 420 269 450 296C480 323 510 334 540 335C570 336 600 327 630 321.5C660 316 690 314 720 308.5C750 303 780 294 810 286C840 278 870 271 885 267.5L900 264L900 195L885 197.2C870 199.3 840 203.7 810 209.3C780 215 750 222 720 226.5C690 231 660 233 630 245.3C600 257.7 570 280.3 540 289.3C510 298.3 480 293.7 450 268.8C420 244 390 199 360 182.2C330 165.3 300 176.7 270 189.2C240 201.7 210 215.3 180 214.2C150 213 120 197 90 211.5C60 226 30 271 15 293.5L0 316Z" fill="#00bed7"></path><path d="M0 399L15 381C30 363 60 327 90 309C120 291 150 291 180 292.2C210 293.3 240 295.7 270 287.8C300 280 330 262 360 266.5C390 271 420 298 450 320.5C480 343 510 361 540 368.8C570 376.7 600 374.3 630 369.8C660 365.3 690 358.7 720 349.7C750 340.7 780 329.3 810 322.7C840 316 870 314 885 313L900 312L900 262L885 265.5C870 269 840 276 810 284C780 292 750 301 720 306.5C690 312 660 314 630 319.5C600 325 570 334 540 333C510 332 480 321 450 294C420 267 390 224 360 212.7C330 201.3 300 221.7 270 235.2C240 248.7 210 255.3 180 256.5C150 257.7 120 253.3 90 271.3C60 289.3 30 329.7 15 349.8L0 370Z" fill="#02cad6"></path><path d="M0 433L15 411.7C30 390.3 60 347.7 90 328.5C120 309.3 150 313.7 180 323.8C210 334 240 350 270 343.3C300 336.7 330 307.3 360 312.8C390 318.3 420 358.7 450 381.2C480 403.7 510 408.3 540 412.8C570 417.3 600 421.7 630 426.2C660 430.7 690 435.3 720 433.2C750 431 780 422 810 408.5C840 395 870 377 885 368L900 359L900 310L885 311C870 312 840 314 810 320.7C780 327.3 750 338.7 720 347.7C690 356.7 660 363.3 630 367.8C600 372.3 570 374.7 540 366.8C510 359 480 341 450 318.5C420 296 390 269 360 264.5C330 260 300 278 270 285.8C240 293.7 210 291.3 180 290.2C150 289 120 289 90 307C60 325 30 361 15 379L0 397Z" fill="#22d6d3"></path><path d="M0 460L15 437.5C30 415 60 370 90 362.2C120 354.3 150 383.7 180 398.3C210 413 240 413 270 408.5C300 404 330 395 360 407.3C390 419.7 420 453.3 450 469C480 484.7 510 482.3 540 475.7C570 469 600 458 630 459.2C660 460.3 690 473.7 720 486C750 498.3 780 509.7 810 507.3C840 505 870 489 885 481L900 473L900 357L885 366C870 375 840 393 810 406.5C780 420 750 429 720 431.2C690 433.3 660 428.7 630 424.2C600 419.7 570 415.3 540 410.8C510 406.3 480 401.7 450 379.2C420 356.7 390 316.3 360 310.8C330 305.3 300 334.7 270 341.3C240 348 210 332 180 321.8C150 311.7 120 307.3 90 326.5C60 345.7 30 388.3 15 409.7L0 431Z" fill="#43e2cd"></path><path d="M0 460L15 437.5C30 415 60 370 90 368.8C120 367.7 150 410.3 180 428.3C210 446.3 240 439.7 270 431.8C300 424 330 415 360 425.2C390 435.3 420 464.7 450 481.5C480 498.3 510 502.7 540 502.7C570 502.7 600 498.3 630 495C660 491.7 690 489.3 720 493.8C750 498.3 780 509.7 810 507.3C840 505 870 489 885 481L900 473L900 471L885 479C870 487 840 503 810 505.3C780 507.7 750 496.3 720 484C690 471.7 660 458.3 630 457.2C600 456 570 467 540 473.7C510 480.3 480 482.7 450 467C420 451.3 390 417.7 360 405.3C330 393 300 402 270 406.5C240 411 210 411 180 396.3C150 381.7 120 352.3 90 360.2C60 368 30 413 15 435.5L0 458Z" fill="#62ecc4"></path><path d="M0 669L15 663.5C30 658 60 647 90 641.5C120 636 150 636 180 639.3C210 642.7 240 649.3 270 653.8C300 658.3 330 660.7 360 660.7C390 660.7 420 658.3 450 658.3C480 658.3 510 660.7 540 664C570 667.3 600 671.7 630 671.7C660 671.7 690 667.3 720 666.2C750 665 780 667 810 665.8C840 664.7 870 660.3 885 658.2L900 656L900 471L885 479C870 487 840 503 810 505.3C780 507.7 750 496.3 720 491.8C690 487.3 660 489.7 630 493C600 496.3 570 500.7 540 500.7C510 500.7 480 496.3 450 479.5C420 462.7 390 433.3 360 423.2C330 413 300 422 270 429.8C240 437.7 210 444.3 180 426.3C150 408.3 120 365.7 90 366.8C60 368 30 413 15 435.5L0 458Z" fill="#82f6ba"></path><path d="M0 676L15 676C30 676 60 676 90 676C120 676 150 676 180 676C210 676 240 676 270 676C300 676 330 676 360 676C390 676 420 676 450 676C480 676 510 676 540 676C570 676 600 676 630 676C660 676 690 676 720 676C750 676 780 676 810 676C840 676 870 676 885 676L900 676L900 654L885 656.2C870 658.3 840 662.7 810 663.8C780 665 750 663 720 664.2C690 665.3 660 669.7 630 669.7C600 669.7 570 665.3 540 662C510 658.7 480 656.3 450 656.3C420 656.3 390 658.7 360 658.7C330 658.7 300 656.3 270 651.8C240 647.3 210 640.7 180 637.3C150 634 120 634 90 639.5C60 645 30 656 15 661.5L0 667Z" fill="#a2ffb0"></path></svg>